inDegrees=no
num_controls=7
num_derivatives=13
num_iterations=103
num_multipliers=7
num_parameters=0
num_slacks=7
num_states=26
objective=0.442566
objective_accelerations=0.002507
objective_balance=0.009553
objective_effort=0.014388
objective_height=0.213430
objective_ligament=0.202688
solver_duration=1276.401687
status=Solve_Succeeded
success=true
DataType=double
version=3
OpenSimVersion=4.5
endheader
time	/jointset/ground_pelvis/pelvis_tilt/value	/jointset/ground_pelvis/pelvis_tx/value	/jointset/ground_pelvis/pelvis_ty/value	/jointset/hip_l/hip_flexion_l/value	/jointset/hip_l/hip_adduction_l/value	/jointset/hip_l/hip_rotation_l/value	/jointset/back/lumbar_extension/value	/jointset/patellofemoral_l/patellar_flexion_l/value	/jointset/knee_l/knee_flexion_l/value	/jointset/knee_l/knee_adduction_l/value	/jointset/knee_l/knee_rotation_l/value	/jointset/ankle_l/ankle_angle_l/value	/jointset/subtalar_l/subtalar_angle_l/value	/jointset/ground_pelvis/pelvis_tilt/speed	/jointset/ground_pelvis/pelvis_tx/speed	/jointset/ground_pelvis/pelvis_ty/speed	/jointset/hip_l/hip_flexion_l/speed	/jointset/hip_l/hip_adduction_l/speed	/jointset/hip_l/hip_rotation_l/speed	/jointset/back/lumbar_extension/speed	/jointset/patellofemoral_l/patellar_flexion_l/speed	/jointset/knee_l/knee_flexion_l/speed	/jointset/knee_l/knee_adduction_l/speed	/jointset/knee_l/knee_rotation_l/speed	/jointset/ankle_l/ankle_angle_l/speed	/jointset/subtalar_l/subtalar_angle_l/speed	/forceset/tau_hip_flexion_l	/forceset/tau_hip_adduction_l	/forceset/tau_hip_rotation_l	/forceset/tau_knee_flexion_l	/forceset/tau_ankle_angle_l	/forceset/tau_subtalar_angle_l	/forceset/tau_lumbar_extension	lambda_cid13_p0	lambda_cid13_p1	lambda_cid13_p2	lambda_cid13_p3	lambda_cid13_p4	lambda_cid13_p5	lambda_cid14_p0	/jointset/ground_pelvis/pelvis_tilt/accel	/jointset/ground_pelvis/pelvis_tx/accel	/jointset/ground_pelvis/pelvis_ty/accel	/jointset/hip_l/hip_flexion_l/accel	/jointset/hip_l/hip_adduction_l/accel	/jointset/hip_l/hip_rotation_l/accel	/jointset/back/lumbar_extension/accel	/jointset/patellofemoral_l/patellar_flexion_l/accel	/jointset/knee_l/knee_flexion_l/accel	/jointset/knee_l/knee_adduction_l/accel	/jointset/knee_l/knee_rotation_l/accel	/jointset/ankle_l/ankle_angle_l/accel	/jointset/subtalar_l/subtalar_angle_l/accel	gamma_cid13_p0	gamma_cid13_p1	gamma_cid13_p2	gamma_cid13_p3	gamma_cid13_p4	gamma_cid13_p5	gamma_cid14_p0
0	-0.01661193152074924	0.04706257193627053	0.9233812794086783	0.3085816938045678	-0.259897771981082	-0.3181905809221598	-0.3879492264334186	0.2499269421185142	0.2499269421184919	-0.09942656800018711	-0.1745329000973058	-0.0008036623358878681	0.03783251659886432	0	0	0	0	0	0	0	0	0	0	0	0	0	-0.04458880783781244	-0.0154439505193744	-0.01303123684607866	-0.2434690336529444	0.3072991902341526	-0.01015872325423667	0.148852172166537	51.26142833671084	-4.55726653769794	0.2650441326234096	-71.46705879912176	-729.4746278900037	-75.88429149465762	-22.92895301100228	2.042063819948857	1.832926247153496	0.4592572620970095	-3.485310288341553	1.899829965998951	-0.918393145823964	1.459728753430991	1.008010129339086	1.008010129339082	4.471123013008335	-0.01987614381365703	3.816315279656569	3.423119686420335	1.294821527468577e-07	6.522756639532427e-07	-3.181946725311706e-07	-3.733694792989506e-08	2.806879886219283e-07	9.435280606882821e-07	5.630972384788667e-08
0.01	-0.01651543644208002	0.04715111747089849	0.9234024581556665	0.3084203981452963	-0.2598102298953813	-0.3182241081193666	-0.3878978441972099	0.2499851029662758	0.249985102966177	-0.09921699698440961	-0.1745275584170468	-0.0006159125530811038	0.03799458348638308	0.01881476200455742	0.01740903679777502	0.004061027672188107	-0.03103122446298195	0.01678230353204478	-0.006186786717974078	0.008051310969263308	0.01248639081484297	0.01248639081484396	0.04067302683306721	0.001001941688209649	0.03729612863011948	0.03155992361140065	-0.002259688774378267	-0.05372499009573115	-0.01553230575439906	-0.298558937445362	0.3687498455810082	-0.007773362242377651	0.1144741430598315	71.61247985950386	-8.002988848498036	-0.5032583660293634	-81.24903934239254	-719.1494260463647	-88.27844702111931	-22.92886946294735	1.72853763859546	1.649874409313818	0.3533733985080444	-2.727843733791387	1.458548922061894	-0.3909633790367787	0.1440618276034374	1.497075486581413	1.497075486581523	3.679245006970453	0.1502114263743876	3.648215701928373	2.894343275942458	7.018018664020836e-08	4.51240997577695e-07	-2.578846490754253e-07	-1.533675498031795e-08	2.09901501104249e-07	6.735645405088931e-07	3.287320357646597e-08
0.02	-0.01624532269378501	0.04740474977614914	0.9234590167551241	0.3079856271997072	-0.259576641099303	-0.3183039315726094	-0.3878327029395141	0.2501937521079036	0.2501937521079055	-0.09863792520277387	-0.1745142008995071	-6.281067452342293e-05	0.03844663252550518	0.03472373392455478	0.03301735412453689	0.007075970493898089	-0.05469505726651683	0.02920934207432199	-0.009259251206097321	0.002751804295694993	0.03009765879067944	0.03009765879068149	0.07390015320670826	0.001603167425844379	0.0730704191497869	0.05799643032049843	0.04006943028910236	-0.09200602967224264	-0.01803337466190361	-0.3536488412377907	0.4302005009278217	-0.005388001230707695	0.08009611395321427	91.98394684844598	-11.43497458258421	-1.293524295429493	-91.25570215012603	-708.6548663256161	-100.6589844799261	-22.92951121802833	1.460905803036851	1.472782352950791	0.2500402920013691	-2.011831956452026	1.028776968045332	-0.2955286998545434	-1.210434775135354	2.032985561537888	2.032985561537894	2.981942921123013	-0.1000193339294398	3.511947657566053	2.398436305959635	1.087822053355901e-08	2.502063312021472e-07	-1.975746256196801e-07	6.663437969259148e-09	1.391150135865697e-07	4.03601020329504e-07	9.436683305045259e-09
0.03	-0.01582442843551552	0.04780583937500925	0.9235421097458577	0.3073379407958721	-0.2592345105851684	-0.3184115226204209	-0.3878640200915676	0.2505921593987404	0.2505921593986948	-0.09775429681398141	-0.1745030962913455	0.000837366519778055	0.0391428890004905	0.04958127969363073	0.04693478969500041	0.00952923371058953	-0.07490093144566826	0.03910091415923996	-0.01221841992015269	-0.00890825884751067	0.04920762056199409	0.04920762056199586	0.1024411526226194	0.0006943702671337916	0.1064022287770719	0.08093806188724016	0.02379808170032665	-0.07206810826906328	-0.01637438366682556	-0.3216326640482484	0.384337201820953	-0.006756447284659354	0.09001697574931986	77.07572457429913	-8.996366452875026	-0.807315335800574	-78.60775444737558	-708.2391204346693	-93.51296785889957	-22.93204649625136	1.517096613031073	1.311359187567633	0.2409877821334679	-2.033775873613602	0.9519955740665896	-0.2899938222274616	-1.127745705260094	1.793572870887079	1.793572870887023	2.732527467630684	-0.07485394222529507	3.159379551773585	2.194490926374435	4.253572272695678e-08	2.206470453355489e-07	-1.560541446877835e-07	-6.169548705089849e-10	9.203016485425406e-08	2.995572397842541e-07	2.737684350413765e-08
0.04	-0.01525117518971701	0.04833813033526885	0.9236493390578849	0.3064864335052706	-0.2587969347011143	-0.3185474819283836	-0.3880087285993149	0.251170380584439	0.2511703805844376	-0.0965967886279574	-0.1744987884617762	0.002053978197645927	0.04005905466001301	0.06519553143022994	0.05925762640443327	0.01190323475265422	-0.09545923462346557	0.04829841605825344	-0.01493290323609357	-0.01992646684460209	0.06606043777166727	0.06606043777166884	0.1286761126707575	0.0002438116930726894	0.1363573158629101	0.1019782672277053	0.007526733111646632	-0.05213018686596825	-0.01471539267135663	-0.2896164868586861	0.3384739027140644	-0.008124893338711763	0.09993783754552901	62.18515932324494	-6.560583066375053	-0.3209601654564052	-66.14731702651086	-707.6636586292698	-86.36545791244177	-22.93650915287634	1.612246996541516	1.153862580744577	0.2341878570760079	-2.082317756181085	0.8899629308643974	-0.2465916202320876	-1.082063745912532	1.581556649209649	1.581556649209672	2.520735047568389	-0.008371617000002399	2.836603149276594	2.018151060704258	7.606867787499473e-08	1.946233343248054e-07	-1.149210770038014e-07	-8.50107112861414e-09	4.543400970514183e-08	1.989344847984709e-07	4.617013113561176e-08
0.05	-0.01452007132378676	0.04898718175375316	0.9237796817223703	0.3054292759826708	-0.2582716860222896	-0.3187075310894829	-0.3882622683041418	0.2519083525189917	0.2519083525189687	-0.09518938125043923	-0.1744956635118038	0.003556044892116798	0.04117631275976314	0.08094073795130288	0.07043666784717655	0.01412931065402005	-0.1158648248804403	0.05654126491143381	-0.01704831224911902	-0.03085837698993516	0.08141288194685681	0.08141288194685663	0.1523295205146213	0.0003602607883237642	0.1637651722596487	0.121162944065646	0.006561422949676632	-0.04976980694364602	-0.01423896405086443	-0.284419224256696	0.3280273704434576	-0.008000516089175472	0.09981088028993522	58.85526939564966	-6.157837380691644	-0.2409301925379822	-62.74062664073612	-706.4062053200443	-85.50997257467367	-22.94248931658569	1.54298837984035	1.082524745093355	0.2114280433528141	-2.003555542169388	0.7599351441114582	-0.1897002186898612	-1.110290079234846	1.493918837450475	1.493918837450217	2.216280492000833	0.01849322079886347	2.649265439986756	1.822046047312589	3.055257080588719e-08	1.403264343622226e-07	-9.395847133604175e-08	-3.861715571961304e-09	4.340485489208781e-08	1.86825625431304e-07	1.853958700479788e-08
